# xmcd CD database file
#
# Track frame offsets:
#	150
#	20085
#	40742
#	63722
#
# Disc length: 1153 seconds
#
# Revision: 0
# Processed by: cddbd v1.5PL3 Copyright (c) Steve Scherf et al.
# Submitted via: CDex 1.50beta10
#
DISCID=32047f04
DTITLE=BA-JI - とりあえず
DYEAR=1900
DGENRE=J-Pop
TTITLE0=酸素をちょうだい!
TTITLE1=愛です
TTITLE2=風のように
TTITLE3=夢がなくて悪かったネ
EXTD=
EXTT0=
EXTT1=
EXTT2=
EXTT3=
PLAYORDER=
